<svg version="1.1" id="Layer_1" xmlns="http://www.w3.org/2000/svg" xmlns:xlink="http://www.w3.org/1999/xlink" x="0px" y="0px"
	 width="100%" viewBox="0 0 608 608" enable-background="new 0 0 608 608" xml:space="preserve">
<path fill="currentColor" opacity="1.000000" stroke="none"
	d="
M405.627838,554.687012
	C374.871368,574.217834 341.654419,584.400085 305.538605,583.890137
	C217.978470,582.653809 142.732864,519.745361 127.236298,433.356781
	C115.684494,368.959106 133.607422,312.756958 179.580078,265.925049
	C193.215881,252.034363 209.065002,240.963440 226.505066,232.311386
	C230.433228,230.362610 232.105820,228.119873 232.093750,223.558960
	C231.948883,168.741852 231.982224,113.924118 232.090378,59.106785
	C232.098587,54.945229 231.023117,53.161301 226.503891,53.153435
	C218.179077,53.138947 213.007126,48.231979 212.857880,41.005348
	C212.711914,33.938606 217.943710,28.669333 226.148270,28.283733
	C231.788284,28.018663 237.461960,28.583918 243.120575,28.583414
	C291.438843,28.579113 339.757111,28.539249 388.075378,28.485888
	C396.072510,28.477055 401.603241,33.378716 401.655212,40.662979
	C401.706146,47.801712 396.583344,52.824413 388.876251,53.192287
	C382.154877,53.513111 382.140106,53.513107 382.139984,60.256172
	C382.139191,114.573906 382.201447,168.891815 382.046265,223.209091
	C382.032928,227.876907 383.592743,230.231934 387.704346,232.404190
	C447.188324,263.830841 481.642639,313.112793 489.214172,379.817383
	C495.655151,436.561707 477.630920,485.951630 438.716309,527.628845
	C429.026367,538.006714 417.799408,546.681091 405.627838,554.687012
M169.030441,319.496674
	C140.157928,374.654968 140.204315,429.494995 172.177200,483.244263
	C206.536407,541.005188 276.667480,570.303650 341.947235,555.145203
	C422.081238,536.537476 475.381378,461.050720 464.597778,379.134430
	C456.737701,319.426361 424.397766,276.598022 369.619080,251.172836
	C361.410309,247.362793 357.458954,242.058701 357.502380,232.691162
	C357.769684,175.037964 357.667175,117.383018 357.679901,59.728661
	C357.681335,53.246475 357.658875,53.212448 350.962280,53.206448
	C322.135101,53.180607 293.307953,53.173733 264.480774,53.166294
	C256.914337,53.164341 256.907227,53.174797 256.914276,61.022270
	C256.966003,118.509865 256.972229,175.997604 257.131042,233.484909
	C257.152954,241.418335 253.982986,246.930054 246.759308,250.057709
	C213.409775,264.497223 187.375275,287.150421 169.030441,319.496674
z"/>
<path fill="currentColor" opacity="1.000000" stroke="none"
	d="
M193.908691,311.953308
	C197.511734,305.043152 202.969009,303.625946 210.173706,303.652954
	C276.155853,303.900421 342.139465,303.821564 408.122284,303.676453
	C412.468842,303.666901 415.216522,305.235962 417.773682,308.498535
	C459.548279,361.796661 459.889801,434.931183 417.951599,488.157318
	C393.033356,519.782410 360.156464,538.555115 319.997070,541.867371
	C247.960175,547.808838 184.687485,501.212097 168.946243,430.681213
	C159.393951,387.880798 167.738907,348.023224 193.908691,311.953308
M318.295837,353.709045
	C302.660370,394.720123 287.024902,435.731232 271.237305,477.141388
	C277.276520,478.360748 282.276642,477.476654 287.197998,477.902313
	C291.197784,478.248230 293.120270,476.590729 294.518402,472.875031
	C309.061310,434.225647 323.809845,395.653687 338.400635,357.022217
	C343.387421,343.818787 343.851471,345.223450 330.485199,345.190033
	C321.575623,345.167786 321.575562,345.194092 318.295837,353.709045
M228.953552,407.431030
	C239.276016,397.047638 249.541901,386.606873 259.964233,376.324707
	C262.311035,374.009460 263.010895,372.276550 260.233551,369.858490
	C257.982574,367.898773 256.060333,365.566437 253.926331,363.466400
	C249.241287,358.855927 249.174438,358.854004 244.523621,363.546875
	C233.752304,374.415649 222.940018,385.244904 212.270340,396.212769
	C207.218597,401.405701 201.663895,406.166534 196.663605,413.109436
	C201.204910,417.268829 205.740692,421.176849 209.997086,425.368622
	C221.852570,437.044098 233.561127,448.868835 245.420181,460.540680
	C246.772202,461.871368 248.237793,464.843170 250.664871,462.669250
	C254.822708,458.945160 259.476471,455.602905 262.241669,450.702057
	C261.631958,448.744415 260.214111,447.762238 259.058228,446.601807
	C248.959000,436.463318 238.941971,426.238678 228.650040,416.298981
	C225.449890,413.208374 224.581390,410.818085 228.953552,407.431030
M365.338806,463.389191
	C366.618774,462.353516 368.004364,461.423523 369.162659,460.266113
	C383.879852,445.559998 398.451569,430.705627 413.339630,416.175171
	C416.885895,412.714081 416.577972,410.582245 413.319244,407.348694
	C400.441925,394.570953 387.738953,381.617218 375.002533,368.697937
	C364.764313,358.312775 364.894073,358.390808 354.989014,369.514526
	C352.386200,372.437561 352.463348,374.127533 355.210876,376.822998
	C365.305420,386.726105 375.236755,396.798981 385.084351,406.948822
	C389.852570,411.863403 389.739136,412.037201 385.047607,416.759735
	C375.076782,426.796478 365.055298,436.782898 355.088440,446.823578
	C353.341095,448.583923 351.128143,450.462555 353.893127,453.062622
	C357.517517,456.470825 360.454346,460.599640 365.338806,463.389191
z"/>
</svg>